<svg width="311" height="125" viewBox="0 0 311 125" fill="none" xmlns="http://www.w3.org/2000/svg">
<path d="M164.072 70.7604C165.715 72.4132 168.393 72.4132 170.036 70.7604L201.658 38.9559C203.284 37.32 203.284 34.6801 201.658 33.0441L170.036 1.23961C168.393 -0.413211 165.715 -0.413204 164.072 1.23963L154.974 10.3906C163.436 15.7887 169.045 25.2415 169.045 36.0004C169.045 46.7591 163.436 56.2117 154.974 61.6099L164.072 70.7604Z" fill="#5EC5FD"/>
<path fill-rule="evenodd" clip-rule="evenodd" d="M154.974 10.3544L132.453 33.0057C130.826 34.6422 130.826 37.2855 132.453 38.9219L154.974 61.5737C150.239 64.5946 144.611 66.3457 138.572 66.3457C121.743 66.3457 108.1 52.7435 108.1 35.9643C108.1 19.1849 121.743 5.5827 138.572 5.5827C144.611 5.5827 150.239 7.3338 154.974 10.3544Z" fill="#F24D0D"/>
<path d="M84.1828 119V102.2H87.8308L93.1828 112.856L98.4628 102.2H102.111V119H99.0388V107.408L94.3588 116.6H91.9348L87.2548 107.408V119H84.1828ZM109.402 119.288C108.378 119.288 107.538 119.128 106.882 118.808C106.226 118.472 105.738 118.032 105.418 117.488C105.098 116.944 104.938 116.344 104.938 115.688C104.938 114.584 105.37 113.688 106.234 113C107.098 112.312 108.394 111.968 110.122 111.968H113.146V111.68C113.146 110.864 112.914 110.264 112.45 109.88C111.986 109.496 111.41 109.304 110.722 109.304C110.098 109.304 109.554 109.456 109.09 109.76C108.626 110.048 108.338 110.48 108.226 111.056H105.226C105.306 110.192 105.594 109.44 106.09 108.8C106.602 108.16 107.258 107.672 108.058 107.336C108.858 106.984 109.754 106.808 110.746 106.808C112.442 106.808 113.778 107.232 114.754 108.08C115.73 108.928 116.218 110.128 116.218 111.68V119H113.602L113.314 117.08C112.962 117.72 112.466 118.248 111.826 118.664C111.202 119.08 110.394 119.288 109.402 119.288ZM110.098 116.888C110.978 116.888 111.658 116.6 112.138 116.024C112.634 115.448 112.946 114.736 113.074 113.888H110.458C109.642 113.888 109.058 114.04 108.706 114.344C108.354 114.632 108.178 114.992 108.178 115.424C108.178 115.888 108.354 116.248 108.706 116.504C109.058 116.76 109.522 116.888 110.098 116.888ZM119.15 119V107.096H121.886L122.174 109.328C122.606 108.56 123.19 107.952 123.926 107.504C124.678 107.04 125.558 106.808 126.566 106.808V110.048H125.702C125.03 110.048 124.43 110.152 123.902 110.36C123.374 110.568 122.958 110.928 122.654 111.44C122.366 111.952 122.222 112.664 122.222 113.576V119H119.15ZM128.665 119V101.72H131.737V111.92L135.961 107.096H139.609L134.737 112.52L140.401 119H136.561L131.737 113.024V119H128.665ZM147.106 119.288C145.906 119.288 144.842 119.032 143.914 118.52C142.986 118.008 142.258 117.288 141.73 116.36C141.202 115.432 140.938 114.36 140.938 113.144C140.938 111.912 141.194 110.816 141.706 109.856C142.234 108.896 142.954 108.152 143.866 107.624C144.794 107.08 145.882 106.808 147.13 106.808C148.298 106.808 149.33 107.064 150.226 107.576C151.122 108.088 151.818 108.792 152.314 109.688C152.826 110.568 153.082 111.552 153.082 112.64C153.082 112.816 153.074 113 153.058 113.192C153.058 113.384 153.05 113.584 153.034 113.792H143.986C144.05 114.72 144.37 115.448 144.946 115.976C145.538 116.504 146.25 116.768 147.082 116.768C147.706 116.768 148.226 116.632 148.642 116.36C149.074 116.072 149.394 115.704 149.602 115.256H152.722C152.498 116.008 152.122 116.696 151.594 117.32C151.082 117.928 150.442 118.408 149.674 118.76C148.922 119.112 148.066 119.288 147.106 119.288ZM147.13 109.304C146.378 109.304 145.714 109.52 145.138 109.952C144.562 110.368 144.194 111.008 144.034 111.872H149.962C149.914 111.088 149.626 110.464 149.098 110C148.57 109.536 147.914 109.304 147.13 109.304ZM160.759 119C159.511 119 158.511 118.696 157.759 118.088C157.007 117.48 156.631 116.4 156.631 114.848V109.664H154.591V107.096H156.631L156.991 103.904H159.703V107.096H162.919V109.664H159.703V114.872C159.703 115.448 159.823 115.848 160.063 116.072C160.319 116.28 160.751 116.384 161.359 116.384H162.847V119H160.759ZM165.556 124.28V107.096H168.292L168.628 108.8C169.012 108.272 169.516 107.808 170.14 107.408C170.78 107.008 171.604 106.808 172.612 106.808C173.732 106.808 174.732 107.08 175.612 107.624C176.492 108.168 177.188 108.912 177.7 109.856C178.212 110.8 178.468 111.872 178.468 113.072C178.468 114.272 178.212 115.344 177.7 116.288C177.188 117.216 176.492 117.952 175.612 118.496C174.732 119.024 173.732 119.288 172.612 119.288C171.716 119.288 170.932 119.12 170.26 118.784C169.588 118.448 169.044 117.976 168.628 117.368V124.28H165.556ZM171.964 116.6C172.94 116.6 173.748 116.272 174.388 115.616C175.028 114.96 175.348 114.112 175.348 113.072C175.348 112.032 175.028 111.176 174.388 110.504C173.748 109.832 172.94 109.496 171.964 109.496C170.972 109.496 170.156 109.832 169.516 110.504C168.892 111.16 168.58 112.008 168.58 113.048C168.58 114.088 168.892 114.944 169.516 115.616C170.156 116.272 170.972 116.6 171.964 116.6ZM181.212 119V101.72H184.284V119H181.212ZM191.527 119.288C190.503 119.288 189.663 119.128 189.007 118.808C188.351 118.472 187.863 118.032 187.543 117.488C187.223 116.944 187.063 116.344 187.063 115.688C187.063 114.584 187.495 113.688 188.359 113C189.223 112.312 190.519 111.968 192.247 111.968H195.271V111.68C195.271 110.864 195.039 110.264 194.575 109.88C194.111 109.496 193.535 109.304 192.847 109.304C192.223 109.304 191.679 109.456 191.215 109.76C190.751 110.048 190.463 110.48 190.351 111.056H187.351C187.431 110.192 187.719 109.44 188.215 108.8C188.727 108.16 189.383 107.672 190.183 107.336C190.983 106.984 191.879 106.808 192.871 106.808C194.567 106.808 195.903 107.232 196.879 108.08C197.855 108.928 198.343 110.128 198.343 111.68V119H195.727L195.439 117.08C195.087 117.72 194.591 118.248 193.951 118.664C193.327 119.08 192.519 119.288 191.527 119.288ZM192.223 116.888C193.103 116.888 193.783 116.6 194.263 116.024C194.759 115.448 195.071 114.736 195.199 113.888H192.583C191.767 113.888 191.183 114.04 190.831 114.344C190.479 114.632 190.303 114.992 190.303 115.424C190.303 115.888 190.479 116.248 190.831 116.504C191.183 116.76 191.647 116.888 192.223 116.888ZM207.107 119.288C205.891 119.288 204.819 119.024 203.891 118.496C202.963 117.968 202.227 117.232 201.683 116.288C201.155 115.344 200.891 114.264 200.891 113.048C200.891 111.832 201.155 110.752 201.683 109.808C202.227 108.864 202.963 108.128 203.891 107.6C204.819 107.072 205.891 106.808 207.107 106.808C208.627 106.808 209.907 107.208 210.947 108.008C211.987 108.792 212.651 109.88 212.939 111.272H209.699C209.539 110.696 209.219 110.248 208.739 109.928C208.275 109.592 207.723 109.424 207.083 109.424C206.235 109.424 205.515 109.744 204.923 110.384C204.331 111.024 204.035 111.912 204.035 113.048C204.035 114.184 204.331 115.072 204.923 115.712C205.515 116.352 206.235 116.672 207.083 116.672C207.723 116.672 208.275 116.512 208.739 116.192C209.219 115.872 209.539 115.416 209.699 114.824H212.939C212.651 116.168 211.987 117.248 210.947 118.064C209.907 118.88 208.627 119.288 207.107 119.288ZM221.449 119.288C220.249 119.288 219.185 119.032 218.257 118.52C217.329 118.008 216.601 117.288 216.073 116.36C215.545 115.432 215.281 114.36 215.281 113.144C215.281 111.912 215.537 110.816 216.049 109.856C216.577 108.896 217.297 108.152 218.209 107.624C219.137 107.08 220.225 106.808 221.473 106.808C222.641 106.808 223.673 107.064 224.569 107.576C225.465 108.088 226.161 108.792 226.657 109.688C227.169 110.568 227.425 111.552 227.425 112.64C227.425 112.816 227.417 113 227.401 113.192C227.401 113.384 227.393 113.584 227.377 113.792H218.329C218.393 114.72 218.713 115.448 219.289 115.976C219.881 116.504 220.593 116.768 221.425 116.768C222.049 116.768 222.569 116.632 222.985 116.36C223.417 116.072 223.737 115.704 223.945 115.256H227.065C226.841 116.008 226.465 116.696 225.937 117.32C225.425 117.928 224.785 118.408 224.017 118.76C223.265 119.112 222.409 119.288 221.449 119.288ZM221.473 109.304C220.721 109.304 220.057 109.52 219.481 109.952C218.905 110.368 218.537 111.008 218.377 111.872H224.305C224.257 111.088 223.969 110.464 223.441 110C222.913 109.536 222.257 109.304 221.473 109.304Z" fill="#1D1D1D"/>
</svg>
