<svg width="65" height="48" viewBox="0 0 65 48" fill="none" xmlns="http://www.w3.org/2000/svg">
<g clip-path="url(#clip0_5106_1599)">
<path d="M38.2148 47.1736C39.3104 48.2755 41.0951 48.2755 42.1906 47.1736L63.2718 25.9706C64.3562 24.88 64.3562 23.1201 63.2718 22.0294L42.1906 0.826409C41.0951 -0.275474 39.3104 -0.275469 38.2148 0.82642L32.1493 6.92706C37.7905 10.5258 41.5299 16.8277 41.5299 24.0003C41.5299 31.1728 37.7906 37.4745 32.1496 41.0732L38.2148 47.1736Z" fill="#5EC5FD"/>
<path fill-rule="evenodd" clip-rule="evenodd" d="M32.1492 6.90294L17.1353 22.0038C16.0506 23.0948 16.0506 24.857 17.1353 25.9479L32.1495 41.0491C28.9928 43.063 25.2407 44.2305 21.215 44.2305C9.99535 44.2305 0.900023 35.1623 0.900024 23.9762C0.900025 12.79 9.99535 3.7218 21.215 3.7218C25.2406 3.7218 28.9926 4.8892 32.1492 6.90294Z" fill="#F24D0D"/>
</g>
<defs>
<clipPath id="clip0_5106_1599">
<rect width="64" height="48" fill="white" transform="translate(0.5)"/>
</clipPath>
</defs>
</svg>
